<?xml version="1.0" standalone="no"?>
<!DOCTYPE svg PUBLIC "-//W3C//DTD SVG 20010904//EN"
 "http://www.w3.org/TR/2001/REC-SVG-20010904/DTD/svg10.dtd">
<svg version="1.0" xmlns="http://www.w3.org/2000/svg"
 width="850.000000pt" height="850.000000pt" viewBox="0 0 850.000000 850.000000"
 preserveAspectRatio="xMidYMid meet">
<metadata>
Created by potrace 1.14, written by Peter Selinger 2001-2017
</metadata>
<g transform="translate(0.000000,850.000000) scale(0.100000,-0.100000)"
fill="#000000" stroke="none">
<path d="M4838 8495 c-2 -2 -24 -5 -49 -8 -54 -6 -182 -48 -242 -78 -193 -98
-347 -291 -430 -539 -32 -95 -38 -121 -52 -210 -2 -14 -7 -45 -11 -70 -4 -25
-6 -115 -5 -200 5 -279 4 -424 -3 -460 -20 -98 -32 -132 -72 -216 -48 -98
-116 -178 -194 -230 -52 -34 -116 -65 -122 -58 -3 2 1 30 8 61 13 65 10 244
-6 273 -5 10 -10 27 -10 36 0 23 -79 184 -91 184 -5 0 -9 6 -9 13 0 8 -29 40
-64 73 -78 73 -81 74 -136 104 -25 14 -46 28 -48 33 -2 4 -9 7 -15 7 -6 0 -39
12 -75 26 -35 14 -66 24 -68 21 -2 -2 5 -15 16 -29 40 -51 92 -175 104 -248 3
-14 5 -25 6 -25 1 0 3 -21 4 -48 2 -26 5 -50 8 -53 4 -3 2 -19 -2 -35 -5 -17
-5 -29 0 -29 5 0 7 -6 5 -12 -2 -7 -6 -38 -9 -68 -9 -109 -57 -294 -103 -400
-24 -57 -143 -291 -154 -303 -28 -34 -155 -240 -180 -292 -16 -33 -36 -89 -45
-125 -17 -65 -22 -199 -10 -238 9 -26 3 -29 -64 -36 -30 -4 -71 -9 -90 -11
-19 -2 -60 -7 -90 -10 -30 -4 -66 -8 -80 -10 -14 -2 -54 -7 -90 -10 -36 -4
-78 -9 -95 -11 -16 -2 -52 -6 -80 -9 -27 -3 -66 -7 -85 -10 -19 -2 -60 -7 -90
-10 -30 -4 -66 -8 -80 -10 -14 -2 -52 -7 -85 -10 -33 -3 -71 -7 -85 -9 -66 -9
-139 -17 -180 -21 -25 -2 -63 -6 -85 -9 -22 -3 -64 -8 -93 -10 -60 -5 -81 -15
-36 -18 28 -1 40 -3 57 -8 13 -4 21 -6 77 -14 30 -4 62 -9 70 -11 8 -1 33 -6
55 -9 38 -6 87 -14 130 -22 11 -2 40 -7 65 -10 25 -3 54 -8 65 -10 11 -3 36
-7 55 -9 19 -3 51 -8 70 -11 19 -3 46 -8 60 -10 32 -5 89 -15 117 -20 13 -3
35 -6 50 -8 16 -2 44 -6 63 -10 19 -3 51 -8 70 -10 19 -3 107 -17 195 -31 88
-14 171 -28 185 -30 14 -2 41 -7 60 -10 19 -4 46 -8 60 -10 14 -2 41 -6 60
-10 19 -4 44 -8 55 -9 11 -2 34 -6 50 -9 17 -3 46 -9 65 -11 19 -3 45 -8 56
-10 12 -2 39 -7 60 -10 45 -8 57 -16 23 -17 -13 0 -33 -2 -44 -4 -11 -2 -47
-7 -80 -10 -33 -4 -71 -8 -85 -10 -14 -2 -52 -6 -85 -10 -33 -3 -71 -8 -85
-11 -14 -2 -50 -6 -80 -9 -30 -3 -71 -8 -90 -11 -77 -10 -107 -14 -155 -19
-102 -12 -121 -14 -165 -20 -25 -4 -65 -8 -90 -11 -25 -2 -61 -7 -80 -9 -19
-3 -51 -8 -70 -10 -56 -6 -152 -17 -185 -21 -16 -2 -55 -6 -85 -8 -30 -3 -66
-8 -80 -11 -14 -3 -45 -7 -70 -10 -25 -3 -63 -8 -85 -11 -22 -3 -56 -8 -75
-10 -47 -5 -131 -15 -152 -18 -10 -1 -21 -6 -25 -10 -5 -4 -3 -6 2 -5 6 2 33
-1 60 -5 28 -5 59 -10 70 -11 11 -2 47 -8 80 -14 76 -14 100 -18 150 -26 22
-3 94 -15 160 -26 66 -11 134 -22 150 -25 17 -2 44 -7 60 -10 17 -4 44 -9 60
-11 17 -1 57 -8 90 -13 33 -6 78 -13 100 -15 22 -3 46 -8 54 -11 8 -2 30 -7
50 -10 20 -3 74 -12 121 -19 47 -8 103 -17 125 -20 22 -3 51 -8 65 -12 14 -3
36 -7 50 -9 14 -2 36 -5 50 -8 14 -2 43 -7 65 -11 22 -3 78 -13 125 -22 102
-18 118 -20 149 -22 13 0 22 -4 19 -7 -6 -5 -38 -11 -113 -19 -22 -2 -49 -6
-60 -8 -17 -4 -71 -11 -175 -23 -14 -1 -41 -5 -60 -7 -19 -3 -60 -8 -90 -12
-30 -3 -66 -8 -80 -10 -31 -5 -124 -16 -170 -21 -19 -2 -48 -5 -65 -7 -16 -3
-57 -8 -90 -12 -32 -4 -66 -8 -75 -10 -14 -2 -90 -12 -165 -20 -76 -9 -140
-17 -157 -20 -11 -2 -46 -7 -79 -10 -33 -4 -69 -8 -79 -10 -10 -2 -46 -6 -79
-10 -33 -3 -70 -8 -83 -10 -13 -3 -45 -7 -73 -10 -27 -3 -59 -8 -70 -10 -11
-2 -31 -4 -44 -4 -32 -1 -20 -13 19 -17 16 -2 42 -6 58 -9 15 -3 77 -14 137
-25 61 -10 121 -21 135 -24 14 -3 43 -8 64 -11 21 -3 48 -7 60 -10 12 -2 37
-7 56 -10 37 -5 73 -11 130 -21 36 -7 52 -9 105 -18 33 -5 76 -13 115 -21 14
-3 43 -8 65 -11 22 -2 54 -7 70 -10 17 -4 39 -8 50 -9 11 -2 90 -16 175 -30
85 -15 164 -29 175 -30 11 -2 34 -6 50 -9 48 -9 120 -22 232 -41 17 -3 42 -9
55 -14 22 -9 22 -10 -7 -11 -42 -2 -85 -7 -131 -15 -40 -7 -67 -10 -142 -20
-105 -13 -138 -18 -157 -22 -11 -2 -42 -6 -70 -8 -27 -3 -59 -7 -70 -9 -11 -2
-49 -7 -85 -11 -36 -4 -73 -9 -84 -11 -10 -2 -44 -6 -75 -9 -31 -4 -67 -8 -81
-10 -35 -6 -120 -17 -150 -20 -14 -2 -45 -6 -70 -9 -48 -7 -89 -12 -160 -21
-25 -3 -56 -7 -70 -10 -14 -3 -45 -7 -70 -10 -64 -7 -121 -15 -150 -20 -14 -2
-52 -7 -85 -11 -53 -5 -97 -20 -63 -21 7 0 103 -17 213 -38 110 -20 209 -38
220 -40 11 -1 48 -8 83 -14 34 -6 90 -16 125 -22 34 -6 71 -13 82 -14 22 -3
124 -21 168 -30 15 -3 37 -7 50 -9 12 -3 38 -7 57 -10 19 -3 46 -8 60 -11 28
-6 181 -34 220 -40 54 -9 194 -35 209 -39 9 -3 32 -7 51 -10 19 -3 56 -9 82
-14 26 -5 50 -7 54 -3 4 3 5 0 2 -8 -2 -8 -13 -16 -24 -17 -10 -2 -39 -6 -64
-9 -25 -3 -58 -8 -75 -10 -16 -2 -50 -7 -75 -10 -25 -3 -54 -7 -66 -9 -12 -2
-45 -7 -75 -11 -30 -3 -61 -8 -69 -10 -8 -2 -40 -7 -70 -10 -51 -6 -82 -10
-150 -20 -45 -7 -254 -36 -296 -41 -23 -3 -53 -7 -65 -9 -13 -3 -47 -8 -75
-10 -28 -3 -60 -7 -71 -9 -11 -3 -42 -7 -69 -11 -53 -6 -89 -13 -89 -15 0 -1
-16 -3 -35 -4 -19 -2 -73 -9 -120 -16 -77 -11 -128 -18 -154 -19 -24 -2 8 -13
80 -27 125 -25 226 -44 259 -49 16 -3 64 -11 105 -19 118 -23 143 -27 175 -32
17 -3 64 -12 105 -20 41 -8 113 -22 160 -30 47 -8 96 -17 110 -20 14 -2 61
-11 105 -19 44 -8 91 -17 105 -20 14 -3 86 -17 161 -30 75 -14 150 -30 167
-34 17 -5 33 -7 36 -3 3 3 6 -2 6 -11 0 -10 -3 -17 -7 -18 -5 0 -15 -2 -23 -4
-8 -1 -35 -6 -60 -9 -40 -6 -116 -18 -130 -21 -3 -1 -32 -5 -65 -9 -32 -4 -66
-9 -75 -11 -8 -1 -42 -6 -75 -10 -32 -3 -62 -8 -65 -10 -3 -1 -30 -6 -61 -9
-31 -4 -67 -9 -80 -11 -13 -3 -42 -7 -64 -10 -22 -2 -51 -6 -65 -9 -24 -4
-101 -15 -145 -21 -11 -2 -40 -6 -65 -10 -25 -3 -56 -8 -70 -10 -73 -10 -118
-17 -145 -21 -16 -3 -41 -7 -55 -9 -27 -4 -90 -14 -129 -20 -23 -4 -86 -14
-123 -19 -23 -3 -35 -16 -17 -17 8 0 21 -2 29 -4 8 -2 33 -6 55 -10 22 -3 48
-8 57 -11 9 -3 25 -6 35 -8 21 -4 94 -18 108 -21 6 -2 26 -5 45 -9 43 -7 76
-14 115 -23 17 -3 39 -7 50 -9 11 -1 56 -9 100 -19 44 -9 87 -18 95 -20 37 -7
97 -17 120 -21 14 -2 45 -9 70 -14 25 -5 56 -12 70 -14 40 -8 80 -16 155 -31
39 -8 81 -16 95 -18 14 -3 61 -13 105 -22 44 -9 91 -19 104 -21 14 -3 28 -7
33 -10 9 -6 -9 -45 -20 -42 -7 2 -93 -9 -137 -18 -11 -2 -40 -6 -65 -10 -25
-3 -52 -8 -62 -9 -9 -2 -38 -7 -65 -11 -26 -3 -57 -8 -68 -11 -28 -6 -74 -13
-115 -18 -31 -3 -122 -17 -190 -29 -54 -10 -106 -18 -135 -21 -16 -2 -43 -6
-60 -10 -30 -6 -68 -12 -127 -19 -18 -2 -44 -7 -58 -10 -14 -3 -41 -8 -60 -11
-89 -13 -112 -17 -128 -20 -9 -2 -39 -7 -65 -11 -26 -3 -45 -9 -42 -13 7 -6
110 -31 135 -32 8 0 29 -5 45 -9 17 -5 44 -11 60 -14 55 -9 136 -26 143 -30 4
-2 26 -7 48 -10 22 -4 105 -20 184 -37 80 -16 156 -32 170 -35 46 -9 175 -36
195 -40 11 -3 34 -7 50 -10 17 -3 46 -9 65 -14 35 -9 182 -40 210 -45 14 -2
15 -8 11 -48 0 -7 -9 -13 -18 -14 -17 -1 -183 -29 -233 -39 -14 -3 -41 -7 -60
-10 -19 -2 -46 -6 -60 -9 -14 -3 -36 -7 -50 -10 -14 -2 -68 -11 -120 -20 -52
-9 -108 -19 -125 -21 -16 -2 -41 -6 -55 -9 -14 -3 -41 -8 -60 -10 -19 -3 -46
-8 -60 -11 -13 -3 -38 -7 -55 -10 -16 -2 -41 -6 -55 -9 -14 -3 -50 -9 -80 -15
-30 -6 -66 -12 -80 -15 -34 -7 -112 -18 -127 -18 -7 0 -13 -4 -13 -8 0 -8 27
-15 86 -25 21 -3 42 -8 45 -10 3 -2 19 -6 35 -8 51 -10 198 -41 257 -55 20 -5
37 -7 37 -5 0 3 8 1 17 -5 10 -5 36 -11 58 -14 22 -3 47 -8 55 -11 8 -3 26 -8
40 -10 20 -4 145 -33 265 -62 34 -8 109 -25 130 -29 11 -2 51 -11 88 -21 67
-17 68 -18 64 -48 -3 -28 -8 -32 -58 -43 -30 -7 -70 -15 -89 -17 -19 -3 -66
-11 -105 -20 -38 -8 -88 -17 -110 -20 -39 -6 -55 -9 -107 -21 -13 -3 -34 -7
-48 -10 -39 -8 -71 -14 -126 -25 -28 -6 -61 -13 -75 -15 -118 -22 -374 -77
-378 -81 -7 -7 3 -13 29 -17 14 -3 57 -13 95 -22 39 -9 79 -18 90 -21 11 -2
29 -6 40 -8 11 -2 70 -16 130 -31 121 -29 136 -33 163 -39 10 -2 63 -16 118
-30 54 -15 108 -28 119 -30 11 -3 47 -12 80 -21 33 -9 78 -21 100 -26 53 -13
62 -23 57 -59 -5 -34 -20 -45 -72 -54 -19 -3 -45 -8 -57 -11 -13 -3 -33 -7
-45 -10 -13 -3 -39 -8 -58 -11 -46 -8 -64 -12 -67 -14 -4 -3 -13 -6 -58 -14
-22 -5 -87 -19 -145 -33 -58 -14 -115 -27 -127 -29 -12 -2 -34 -9 -48 -14 -14
-5 -25 -8 -25 -5 0 2 -15 -1 -32 -6 -18 -6 -42 -12 -53 -14 -68 -14 -155 -38
-152 -41 2 -2 33 -6 68 -9 35 -3 75 -8 89 -10 14 -2 48 -7 75 -10 107 -12 141
-16 165 -20 51 -9 96 -16 120 -20 52 -7 230 -46 296 -65 64 -19 102 -20 566
-20 435 0 498 2 499 15 1 8 2 18 3 23 1 4 6 36 10 72 11 89 13 110 20 145 5
30 14 97 21 165 2 19 7 48 10 65 3 16 8 47 10 70 2 22 9 74 14 115 6 41 13 91
16 110 9 68 15 116 19 135 2 11 7 49 11 85 4 36 9 74 11 85 2 10 6 37 9 60 3
22 8 56 10 75 3 19 7 51 10 70 2 19 6 51 9 70 8 51 27 199 32 240 2 19 6 44 8
56 4 21 16 107 21 154 3 26 23 178 30 220 7 47 15 105 20 145 2 22 7 54 9 70
3 17 10 66 16 110 6 44 13 96 16 115 3 19 7 51 9 70 6 59 15 124 20 140 2 8 7
40 10 70 3 30 8 66 11 80 2 14 6 36 9 49 2 14 7 45 10 70 3 25 7 62 10 81 2
19 7 64 10 100 15 184 22 240 29 247 1 2 28 -68 60 -155 31 -86 61 -166 66
-177 5 -11 48 -126 96 -255 47 -129 100 -271 116 -315 16 -44 41 -111 55 -150
13 -38 29 -79 34 -90 9 -20 58 -151 63 -170 2 -5 8 -23 14 -38 7 -16 12 -33
12 -38 0 -5 4 -17 10 -27 5 -9 23 -53 39 -97 16 -44 32 -89 37 -100 4 -11 8
-22 8 -25 1 -3 9 -25 19 -50 83 -221 119 -317 121 -325 1 -5 11 -35 23 -65 12
-30 54 -143 93 -250 39 -107 75 -204 80 -215 4 -11 18 -47 30 -80 12 -33 25
-69 30 -80 24 -63 91 -242 170 -460 10 -27 22 -59 26 -70 4 -11 17 -47 29 -80
l22 -60 506 -3 c279 -1 507 1 508 5 1 9 3 22 13 98 15 113 19 141 22 157 3 21
15 104 29 208 10 73 15 106 20 130 2 14 7 46 10 72 5 46 12 99 20 148 3 14 10
61 16 105 6 44 13 94 15 110 3 17 7 48 9 70 7 53 14 102 21 145 3 19 7 49 9
65 2 17 4 30 5 30 1 0 3 11 4 25 10 93 18 155 21 160 2 3 7 33 10 65 4 33 9
67 10 77 2 9 6 38 10 65 4 26 8 59 10 73 9 57 18 127 20 150 2 14 4 25 5 25 0
0 3 18 5 40 3 21 7 55 10 75 3 19 7 46 10 60 2 14 6 48 10 75 12 92 21 153 28
200 3 17 8 53 12 80 7 55 12 90 25 180 5 33 12 83 15 110 3 28 8 57 10 65 2 8
7 40 10 70 3 30 10 80 15 110 5 30 12 78 15 105 10 86 13 108 24 175 6 36 13
88 16 115 4 28 8 61 11 75 2 14 6 45 10 70 3 25 7 52 9 60 5 17 18 123 19 158
1 12 3 22 6 22 3 0 5 10 6 23 0 26 13 122 19 151 3 12 7 41 10 66 3 25 8 59
10 75 3 17 7 48 9 70 3 22 7 49 10 61 2 11 7 45 10 75 3 30 8 63 10 74 2 11 7
43 10 70 4 28 11 77 16 110 11 75 20 134 25 177 2 18 7 49 10 68 3 19 7 53 10
75 6 55 14 115 20 145 2 14 7 48 10 75 4 28 8 57 10 65 5 17 18 125 19 155 1
19 -6 20 -109 21 -60 1 -117 2 -126 3 -18 1 -153 266 -210 409 -91 228 -116
499 -68 712 6 25 13 56 15 70 3 14 21 78 40 142 31 101 43 157 46 218 5 75
-46 252 -84 295 -7 8 -26 32 -43 54 -40 53 -59 61 -50 21 7 -31 8 -102 2 -130
-6 -31 -52 -111 -89 -157 -45 -54 -145 -169 -169 -192 -8 -9 -33 -38 -55 -66
-21 -27 -45 -57 -53 -65 -39 -40 -128 -198 -136 -239 -2 -9 -4 -17 -5 -18 -2
-2 -4 -7 -5 -13 -1 -5 -3 -11 -5 -12 -2 -4 -7 -23 -19 -83 -13 -69 -11 -230 5
-290 20 -73 19 -74 -37 -20 -91 89 -175 232 -199 340 -21 94 -24 123 -23 225
2 134 7 174 38 290 14 52 27 102 29 110 2 8 20 58 40 110 21 52 39 103 41 112
2 9 9 26 15 38 12 22 14 30 29 108 11 54 5 196 -9 221 -5 11 -10 29 -10 40 0
12 -4 21 -10 21 -5 0 -9 3 -8 8 2 10 -34 82 -42 82 -3 0 -6 -17 -7 -37 0 -119
-46 -217 -147 -323 -132 -137 -337 -212 -511 -186 -165 24 -341 146 -454 314
-13 20 -27 39 -31 42 -18 14 -92 185 -109 250 -41 155 -14 328 71 469 21 34
38 65 38 68 0 3 38 43 84 89 l84 84 -44 -2 c-24 0 -45 -2 -46 -3z"/>
</g>
</svg>
