<?xml version="1.0" encoding="utf-8"?>
<!-- Generator: Adobe Illustrator 25.0.0, SVG Export Plug-In . SVG Version: 6.00 Build 0)  -->
<svg version="1.1" id="Layer_1" xmlns="http://www.w3.org/2000/svg" xmlns:xlink="http://www.w3.org/1999/xlink" x="0px" y="0px"
	 viewBox="0 0 292.2 425" style="enable-background:new 0 0 292.2 425;" xml:space="preserve">
<style type="text/css">
	.st0{fill-rule:evenodd;clip-rule:evenodd;fill:url(#SVGID_1_);}
	.st1{fill:#FFFFFF;}
</style>
<linearGradient id="SVGID_1_" gradientUnits="userSpaceOnUse" x1="178.6376" y1="194.084" x2="178.6376" y2="488.006" gradientTransform="matrix(1 0 0 -1 0 488)">
	<stop  offset="0" style="stop-color:#FF7543"/>
	<stop  offset="0.6072" style="stop-color:#FFD01F"/>
	<stop  offset="1" style="stop-color:#FFF900"/>
</linearGradient>
<path class="st0" d="M285.2,179.9c0,0-34.8,6-41.2-7.4c0,0,18,37,32,69.5c-4.9,90-27.5,178.5-32.7,181.5
	c-38.1-10.7-83.2-179.4-107.3-189c-6.5-2.6-38.4,186-38.4,186c-13.7-15,6.5-185.4,10.3-202.5c3.3-14.9,18.3-32.4,8.2-38.1
	c0,0-48.5-13.5-32.5-3.9c0,0-22.3-17.7-4.5-43.3C112.7,84.2,90,61.9,90,61.9s10.4,2.4,17.7,9.6c7.5,7.3,12.1,19.7,8.2,32.5
	c0,0,24-5.7,20-42.7c-2.4-22.4,6.5-60.6,44.2-61.3c0,0-29.8,20.4-6.1,51.7s58.2,4.5,54.2-14c0,0,9.1,10.2,2.6,26.2
	c-6.6,16-16.4,43.4,6.2,62.5c0,0-6.8-17.9,6.3-35.1c3.7-4.9,7.2-8.7,10.1-12c7.4-8.2,11.5-12.7,8.6-21.8c0,0,14.2,10.7,7.5,30
	c-9.9,28.7-1.4,45.6,6.5,61.2C281,158.7,285.8,168.2,285.2,179.9z"/>
<path class="st1" d="M157.5,155.7l61.1,169.1h0.6c0.8-2.4,1.8-12.3,3-29.7l19.6-139.4h50.4l-38,269.3h-50.4l-62.9-169.7
	c-0.4,2.8-0.8,6.9-1.2,12.5c-0.4,5.5-1.2,11.5-2.4,17.8l-19,139.4H68.5l38-269.3H157.5z"/>
<path class="st1" d="M69,425c6.5,0.1,18.4-0.1,24.9,0c5.4-20-4.1-38.1,0-61.6c-3.7-7.3,2.1-45.7,5.2-69.2
	c5.5-42.2,12.1-90.4,16.4-138.2c-11.9-0.3-6.3,0.4-18.3,0.1C64.5,159.6,32,163.7,0,167.2c33,5.6,65.5,10.4,97.8,16
	c-32.5,4.2-64.5,7.6-96.2,11.8c31.8,5.5,63.4,10.4,94.5,15.9c-31.3,4.2-62.4,7.7-93,11.9c30.8,5.5,61.1,10.3,91.1,15.8
	c-30.2,4.2-59.9,7.7-89.3,11.9c29.6,5.5,58.7,10.3,87.4,15.8c-28.9,4.2-57.4,7.8-85.3,12c28.3,5.5,56,10.2,83.3,15.7
	c-27.5,4.3-54.5,7.8-80.9,12.1c26.9,5.4,53,10.2,78.7,15.6c-25.9,4.3-51.3,7.9-76.1,12.2c25.2,5.4,49.8,10.1,73.8,15.5
	c-24.2,4.3-47.7,8-70.5,12.3c23.3,4.7,46.1,10,68,15.3c-22.2,3.7-43.6,8.1-64.3,12.5c21.2,4.6,41.7,9.9,61.3,15.2
	c-19.8,3.7-38.7,8.2-56.6,12.6C41.5,419.2,53,420.5,69,425z"/>
</svg>
