<?xml version="1.0" encoding="utf-8"?>
<!-- Generator: Adobe Illustrator 25.0.0, SVG Export Plug-In . SVG Version: 6.00 Build 0)  -->
<svg version="1.1" id="Layer_1" xmlns="http://www.w3.org/2000/svg" xmlns:xlink="http://www.w3.org/1999/xlink" x="0px" y="0px"
	 viewBox="0 0 1023.5 512.3" style="enable-background:new 0 0 1023.5 512.3;" xml:space="preserve">
<style type="text/css">
	.st0{fill:url(#SVGID_1_);}
	.st1{fill:#FFFFFF;}
	.st2{fill:#CA0F2C;}
	.st3{fill:#A6182E;}
</style>
<linearGradient id="SVGID_1_" gradientUnits="userSpaceOnUse" x1="889.4666" y1="241.128" x2="889.4666" y2="702.009" gradientTransform="matrix(1 0 0 -1 0 702)">
	<stop  offset="0" style="stop-color:#FF7543"/>
	<stop  offset="0.6072" style="stop-color:#FFD01F"/>
	<stop  offset="1" style="stop-color:#FFF900"/>
</linearGradient>
<path class="st0" d="M1004.4,234.1c6.8,21-3.4,48-3.4,48c1.7-47-33.9-71-16.6-145.1c7-30.3-8-47-8-47c4.2,20-5.9,26-19.7,53
	c-13.8,27-6.6,55-6.6,55c-23.8-30-13.5-73-6.5-98c6.9-25-2.7-41-2.7-41c4.2,29-32.2,71-57.2,22c-25.1-49,6.4-81,6.4-81
	c-39.8,1-49.2,60.9-46.6,96c4.2,58-21.1,67-21.1,67c4.1-20.2-0.8-39.5-8.6-51c-7.8-11.3-18.7-15-18.7-15s24,35-11.7,111
	c-18.8,40.1,2.5,81,2.5,81c-16.9-15-30.5,0-30.5,0c22.9,19-17.1,89.9,10,133.9c15.7,25.6,11.8,51,29.6,59.5
	c-11.7-22-16.8-87.9-9.1-136.5c14.5-63.9,55.7-111.9,111.5-111.9S990,282.9,990,348.9C986.5,395,970,466,928,494
	c40.3-17.2,76.9-95.4,84.1-118.8C1041.6,277.1,1004.4,234.1,1004.4,234.1z"/>
<path class="st1" d="M157.5,237.7l61.1,169.1h0.6c0.8-2.4,1.8-12.3,3-29.7l19.6-139.4h50.4l-38,269.3h-50.4l-62.9-169.7
	c-0.4,2.8-0.8,6.9-1.2,12.5c-0.4,5.5-1.2,11.5-2.4,17.8l-19,139.4H68.5l38-269.3H157.5z M366.2,507h-56.9l38-269.3h56.9L366.2,507z
	 M586.4,284h-54.6l-31.4,223h-56.9l30.8-223h-55.2l5.9-46.3h168.5L586.4,284z M648.4,362.9l24.9,1.2c22.5,0,36-14,40.3-42.1
	c4.7-28.9-5.5-43.3-30.8-43.3c-5.9,0-13.6,0.4-23.1,1.2L648.4,362.9z M663.2,405l-20.8-0.6L628.2,507h-54l38-269.3
	c0,0,24.1-0.6,72.4-1.8c34.4,0,58.1,6.5,71.2,19.6c13.8,13.1,18.8,35.6,14.8,67.6c-3.2,21.4-10.1,38.2-20.8,50.4
	c-10.7,11.9-22.3,19.8-35,23.7L752.2,507h-60.5L663.2,405z M871.1,467.3c16.2,0,28.9-8.1,38-24.3c9.1-16.6,15.6-39.9,19.6-70
	c4.4-30.5,4.2-53.8-0.6-70c-4.7-16.6-15-24.9-30.8-24.9c-15.4,0-27.7,8.3-36.8,24.9c-9.1,16.2-15.8,39.5-20.2,70
	c-4.3,30.1-4.3,53.4,0,70C844.6,459.1,854.9,467.3,871.1,467.3z M903.7,232.9c33.2,0,57.2,11.3,71.8,33.8
	c14.6,22.5,18.6,57.9,11.9,106.2c-6.7,47.9-20.6,83-41.5,105.6c-21,22.5-48.1,33.8-81.3,33.8c-68.4,0-96.1-46.5-83-139.4
	c6.7-48.2,20.6-83.6,41.5-106.2C844,244.2,870.9,232.9,903.7,232.9z"/>
<path class="st2" d="M909.6,373.9c0.3,1.4,0.5,2.9,0.5,4.4c17.8-17.7,57.2-58.3,57.2-58.3s-48.8,26.4-70.8,39
	C903,361.2,908,366.8,909.6,373.9z"/>
<path class="st3" d="M909.6,373.9c-1.6-7.2-6.8-12.7-13-15.1c-3.8-1.5-8.1-1.8-12.4-0.8c-11.4,2.6-18.5,14-15.9,25.4
	c2.6,11.5,14,18.6,25.4,15.9c10-2.3,16.7-11.2,16.4-21C910.1,376.8,910,375.4,909.6,373.9z"/>
<path class="st1" d="M69,507c6.5,0.1,18.4-0.1,24.9,0c5.4-20-4.1-38.1,0-61.6c-3.7-7.3,2.1-45.7,5.2-69.2
	c5.5-42.2,12.1-90.4,16.4-138.2c-11.9-0.3-6.3,0.4-18.3,0.1C64.5,241.6,32,245.7,0,249.2c33,5.6,65.5,10.4,97.8,16
	c-32.5,4.2-64.5,7.6-96.2,11.8c31.8,5.5,63.4,10.4,94.5,15.9c-31.3,4.2-62.4,7.7-93,11.9c30.8,5.5,61.1,10.3,91.1,15.8
	c-30.2,4.2-59.9,7.7-89.3,11.9c29.6,5.5,58.7,10.3,87.4,15.8c-28.9,4.2-57.4,7.8-85.3,12c28.3,5.5,56,10.2,83.3,15.7
	c-27.5,4.3-54.5,7.8-80.9,12.1c26.9,5.4,53,10.2,78.7,15.6c-25.9,4.3-51.3,7.9-76.1,12.2c25.2,5.4,49.8,10.1,73.8,15.5
	c-24.2,4.3-47.7,8-70.5,12.3c23.3,4.7,46.1,10,68,15.3c-22.2,3.7-43.6,8.1-64.3,12.5c21.2,4.6,41.7,9.9,61.3,15.2
	c-19.8,3.7-38.7,8.2-56.6,12.6C41.5,501.2,53,502.5,69,507z"/>
</svg>
